# Blender v2.80 (sub 75) OBJ File: ''
# www.blender.org
mtllib Mi_24_heli2.mtl
o polySurface233.000_polySurface233.003
v -0.041684 0.022447 0.003483
v -0.041617 -0.007852 0.007020
v -0.046822 -0.006053 -0.053897
v -0.046778 -0.021157 -0.058753
v -0.041551 -0.044488 0.010558
v 0.012920 -0.150439 0.052735
v 0.012920 -0.150390 0.096821
v 0.000495 -0.156598 0.100415
v 0.000495 -0.156656 0.049155
v -0.011930 -0.150390 0.096821
v -0.011930 -0.150439 0.052735
v 0.018926 -0.054089 0.041887
v 0.018926 -0.053837 0.107290
v 0.010896 -0.100458 0.093173
v 0.010896 -0.100500 0.056268
v 0.000495 -0.063324 0.036601
v 0.000495 -0.105704 0.053272
v -0.017939 -0.053837 0.107290
v -0.017939 -0.054089 0.041887
v -0.009906 -0.100500 0.056268
v -0.009906 -0.100458 0.093173
v 0.012920 -0.106619 0.096772
v 0.012920 -0.106669 0.052686
v 0.000495 -0.112886 0.049105
v -0.011930 -0.106669 0.052686
v -0.011930 -0.106619 0.096772
v 0.018926 0.002270 0.009048
v 0.000495 0.002195 -0.001593
v -0.017939 0.002270 0.009048
v -0.017939 0.059138 0.041353
v -0.017939 0.002389 0.030017
v -0.017939 0.040742 0.051824
v -0.017939 0.059535 0.106464
v -0.017939 0.041033 0.095942
v 0.012920 0.097508 -0.047495
v 0.012920 0.059169 -0.069257
v 0.000495 0.059115 -0.076430
v 0.000495 0.103694 -0.051128
v -0.011930 0.059169 -0.069257
v -0.011930 0.097508 -0.047495
v 0.018926 0.059138 0.041353
v 0.010896 0.037642 -0.024056
v 0.010896 0.069737 -0.005840
v 0.000495 0.037597 -0.030060
v -0.009906 0.037642 -0.024057
v -0.009906 0.069737 -0.005840
v 0.012920 0.037562 -0.031190
v 0.012920 0.075903 -0.009429
v 0.000495 0.037509 -0.038363
v -0.011930 0.037562 -0.031190
v -0.011930 0.075903 -0.009429
v 0.034072 0.100494 0.022937
v 0.033658 0.115180 0.061001
v 0.052509 0.115036 0.061260
v 0.052923 0.100352 0.023196
v 0.032041 -0.054827 0.084773
v 0.032598 -0.055607 0.043985
v 0.051449 -0.055749 0.044245
v 0.050892 -0.054970 0.085034
v 0.032981 -0.085428 -0.000127
v 0.033629 -0.060945 -0.033638
v 0.052480 -0.061088 -0.033377
v 0.051832 -0.085572 0.000133
v 0.034041 -0.020908 -0.041484
v 0.052892 -0.021050 -0.041224
v 0.033642 0.010053 0.004392
v 0.033641 0.045769 0.024114
v 0.052492 0.045626 0.024376
v 0.052494 0.009911 0.004652
v 0.073806 0.016717 0.048755
v 0.073658 0.021954 0.062328
v 0.073491 0.000690 0.062732
v 0.073434 -0.019429 0.055839
v 0.073659 -0.010293 0.044522
v 0.073806 0.003983 0.041724
v 0.052078 0.060312 0.062440
v 0.052082 -0.030127 0.012500
v 0.050060 -0.079314 0.131951
v 0.031209 -0.079171 0.131689
v 0.033231 -0.029984 0.012238
v 0.056199 -0.046531 0.132455
v 0.056199 -0.046531 0.148237
v -0.036220 -0.046531 0.148237
v -0.036220 -0.046531 0.132455
v 0.056199 -0.031521 0.127577
v 0.056199 -0.035670 0.140345
v 0.056199 0.084460 0.050881
v 0.056199 0.069449 0.055756
v -0.036220 0.069449 0.055756
v -0.036220 0.084460 0.050881
v 0.056199 0.093736 0.063648
v -0.036220 0.093736 0.063648
v 0.056199 0.080312 0.063648
v 0.056199 0.069449 0.071541
v 0.056199 -0.035263 -0.016463
v 0.056199 -0.050272 -0.011586
v -0.036220 -0.050272 -0.011586
v -0.036220 -0.035263 -0.016463
v 0.056199 -0.050272 0.004196
v -0.036220 -0.050272 0.004196
v 0.056199 -0.025985 -0.003696
v -0.036220 -0.025985 -0.003696
v 0.056199 -0.039411 -0.003696
v -0.036220 -0.039411 -0.003696
v -0.009725 -0.147976 0.035497
v -0.000778 -0.136292 0.111011
v 0.010304 -0.136292 0.111011
v -0.005594 -0.147976 0.035497
v 0.010304 -0.236732 0.110873
v -0.005594 -0.236590 0.008024
v -0.005594 -0.875551 0.007141
v 0.010304 -0.875692 0.109991
v -0.000778 -0.875692 0.109991
v -0.009725 -0.875551 0.007141
v -0.000778 -0.236732 0.110873
v -0.009725 -0.236590 0.008024
v -0.009725 0.099931 -0.028959
v -0.000778 0.029589 -0.058809
v 0.010304 0.029589 -0.058809
v -0.005594 0.099931 -0.028959
v 0.010304 0.082620 -0.144109
v -0.005594 0.169966 -0.089805
v -0.005594 0.507328 -0.632446
v 0.010304 0.419983 -0.686749
v -0.000778 0.419983 -0.686749
v -0.009725 0.507328 -0.632446
v -0.000778 0.082620 -0.144109
v -0.009725 0.169966 -0.089805
v -0.005594 0.405942 0.840687
v 0.010304 0.492775 0.785569
v -0.000778 0.492775 0.785569
v -0.009725 0.405942 0.840687
v -0.000778 0.150353 0.246107
v -0.009725 0.063520 0.301225
v -0.005594 0.063520 0.301225
v 0.010304 0.150353 0.246107
v -0.036501 0.045578 0.070434
v -0.036368 -0.046858 0.077512
vt 0.073717 0.436008
vt 0.072562 0.420815
vt 0.103038 0.422932
vt 0.105755 0.415489
vt 0.071534 0.402460
vt 0.984263 0.834451
vt 0.973473 0.829956
vt 0.974019 0.826163
vt 0.986570 0.831393
vt 0.918370 0.883877
vt 0.916560 0.870400
vt 0.920364 0.870851
vt 0.921920 0.882437
vt 0.976851 0.860153
vt 0.960463 0.853369
vt 0.968762 0.842876
vt 0.978407 0.846896
vt 0.982099 0.858251
vt 0.981795 0.846437
vt 0.946321 0.864313
vt 0.948683 0.881895
vt 0.935455 0.879994
vt 0.934063 0.869638
vt 0.945499 0.886479
vt 0.934139 0.883149
vt 0.969226 0.840831
vt 0.979531 0.845124
vt 0.983115 0.844874
vt 0.933454 0.880623
vt 0.931967 0.869559
vt 0.932288 0.884020
vt 0.988060 0.834378
vt 0.920870 0.886086
vt 0.979178 0.877826
vt 0.984739 0.878302
vt 0.964177 0.894166
vt 0.965140 0.888668
vt 0.979178 0.877827
vt 0.964490 0.883571
vt 0.974490 0.875856
vt 0.976852 0.860153
vt 0.972809 0.863328
vt 0.983713 0.907844
vt 0.992965 0.900700
vt 0.995988 0.903054
vt 0.985225 0.911363
vt 0.995988 0.903055
vt 0.985225 0.911364
vt 0.983714 0.907844
vt 0.992966 0.900701
vt 0.965140 0.888669
vt 0.984079 0.890202
vt 0.975809 0.896591
vt 0.987471 0.889769
vt 0.975810 0.896591
vt 0.974526 0.899759
vt 0.984079 0.890202
vt 0.985625 0.891622
vt 0.976789 0.898445
vt 0.989150 0.890934
vt 0.976789 0.898445
vt 0.975230 0.901681
vt 0.985625 0.891622
vt 0.996651 0.899784
vt 0.981894 0.911178
vt 0.832371 0.099985
vt 0.820424 0.113279
vt 0.816129 0.107328
vt 0.826195 0.094534
vt 0.762143 0.045771
vt 0.774433 0.036876
vt 0.780426 0.041893
vt 0.765271 0.052924
vt 0.791720 0.012957
vt 0.809673 0.016147
vt 0.806789 0.022833
vt 0.790356 0.021099
vt 0.824092 0.026822
vt 0.819121 0.033423
vt 0.819375 0.056850
vt 0.820942 0.072048
vt 0.813541 0.074603
vt 0.811599 0.056034
vt 0.796169 0.069705
vt 0.792873 0.074471
vt 0.787930 0.067659
vt 0.785614 0.059478
vt 0.791383 0.059987
vt 0.795574 0.064001
vt 0.803030 0.089281
vt 0.798415 0.043746
vt 0.742862 0.057146
vt 0.741278 0.049730
vt 0.902648 0.826461
vt 0.890971 0.820397
vt 0.894172 0.802838
vt 0.905744 0.809568
vt 0.783630 0.017665
vt 0.878130 0.823261
vt 0.881331 0.805704
vt 0.826388 0.035671
vt 0.832694 0.090631
vt 0.288978 0.279133
vt 0.289014 0.268610
vt 0.341500 0.268791
vt 0.341464 0.279314
vt 0.349480 0.321496
vt 0.361022 0.316304
vt 0.358825 0.326844
vt 0.350852 0.334078
vt 0.289123 0.237037
vt 0.289159 0.226513
vt 0.341645 0.226694
vt 0.341609 0.237218
vt 0.289086 0.247561
vt 0.341573 0.247742
vt 0.349480 0.321496
vt 0.361022 0.316304
vt 0.358825 0.326844
vt 0.350852 0.334078
vt 0.369527 0.325677
vt 0.289123 0.237037
vt 0.289159 0.226513
vt 0.341645 0.226694
vt 0.341609 0.237218
vt 0.288978 0.279133
vt 0.289014 0.268610
vt 0.341500 0.268791
vt 0.341464 0.279314
vt 0.289086 0.247561
vt 0.341573 0.247742
vt 0.349480 0.321496
vt 0.361022 0.316304
vt 0.358825 0.326844
vt 0.350852 0.334078
vt 0.369527 0.325677
vt 0.499883 0.182015
vt 0.512726 0.186902
vt 0.502940 0.193296
vt 0.512046 0.200626
vt 0.491266 0.192717
vt 0.044529 0.775999
vt 0.010771 0.781122
vt 0.010942 0.786044
vt 0.044590 0.777826
vt 0.044529 0.775998
vt 0.010771 0.781121
vt 0.010917 0.736538
vt 0.056730 0.736768
vt 0.058506 0.451456
vt 0.012444 0.448081
vt 0.012840 0.452975
vt 0.058650 0.453293
vt 0.010917 0.736538
vt 0.056730 0.736769
vt 0.005990 0.736515
vt 0.005859 0.781099
vt 0.060485 0.453338
vt 0.058514 0.737043
vt 0.058651 0.453293
vt 0.012840 0.452975
vt 0.007932 0.452949
vt 0.046296 0.776516
vt 0.044529 0.775999
vt 0.010771 0.781122
vt 0.010942 0.786044
vt 0.044590 0.777826
vt 0.044529 0.775998
vt 0.010771 0.781121
vt 0.010917 0.736538
vt 0.056730 0.736768
vt 0.058506 0.451456
vt 0.012444 0.448081
vt 0.012840 0.452975
vt 0.058650 0.453293
vt 0.010917 0.736538
vt 0.056730 0.736769
vt 0.005990 0.736515
vt 0.005859 0.781099
vt 0.060485 0.453338
vt 0.058514 0.737043
vt 0.058651 0.453293
vt 0.012840 0.452975
vt 0.007932 0.452949
vt 0.046296 0.776516
vt 0.058506 0.451456
vt 0.012444 0.448081
vt 0.012840 0.452975
vt 0.058650 0.453293
vt 0.010917 0.736538
vt 0.056730 0.736769
vt 0.060485 0.453338
vt 0.058514 0.737043
vt 0.058651 0.453293
vt 0.056730 0.736768
vt 0.010917 0.736538
vt 0.012840 0.452975
vt 0.007932 0.452949
vt 0.005990 0.736515
vn 0.9958 -0.0230 -0.0885
vn 0.9966 0.0018 -0.0822
vn 0.9993 0.0089 0.0371
vn 0.9779 0.2079 0.0235
vn 0.9937 0.0082 -0.1121
vn 0.4472 -0.8944 0.0010
vn -0.4472 -0.8944 0.0010
vn 0.9854 -0.1701 0.0005
vn 0.4109 -0.3339 -0.8484
vn -0.9854 -0.1702 0.0005
vn -0.4109 -0.3339 -0.8484
vn 0.9501 0.3119 -0.0004
vn 0.0000 0.5018 -0.8650
vn -0.0018 0.5018 -0.8650
vn -0.9501 0.3119 -0.0004
vn 0.0018 0.5018 -0.8650
vn 1.0000 0.0000 0.0000
vn 0.2774 -0.0011 -0.9608
vn -1.0000 0.0000 0.0000
vn -0.2774 -0.0011 -0.9608
vn 0.4476 -0.4503 -0.7726
vn -0.4475 -0.4503 -0.7726
vn 0.4472 0.4415 -0.7779
vn -0.4472 0.4415 -0.7779
vn 0.9853 0.0845 -0.1487
vn 0.4122 -0.5709 -0.7100
vn -0.4122 -0.5709 -0.7100
vn -0.9853 0.0845 -0.1488
vn 0.9501 -0.1540 0.2713
vn -0.0019 -0.9999 0.0106
vn -0.0000 -0.9999 0.0106
vn 0.0019 -0.9999 0.0106
vn -0.9501 -0.1540 0.2713
vn 0.2774 -0.8356 -0.4742
vn -0.2774 -0.8356 -0.4742
vn 0.0120 0.9330 -0.3598
vn -0.0078 -0.9998 0.0190
vn 0.0020 -0.8075 -0.5899
vn 0.0121 -0.1924 -0.9812
vn 0.0158 0.4834 -0.8753
vn 0.9999 -0.0076 0.0138
vn 0.8576 0.4830 -0.1770
vn 0.8527 -0.4147 -0.3177
vn 0.8542 -0.1085 -0.5084
vn 0.8562 0.2498 -0.4523
vn -0.0003 -0.8876 -0.4606
vn -0.9999 0.0076 -0.0138
vn -0.0140 -0.8284 0.5599
vn 0.0140 0.8289 -0.5593
vn 0.0137 -0.0216 -0.9997
vn 0.0000 -1.0000 0.0000
vn 0.0000 -0.3089 -0.9511
vn 0.0000 0.8090 -0.5878
vn 0.0000 -0.3090 -0.9511
vn 0.0000 0.9882 -0.1529
vn 0.9839 0.0259 -0.1771
vn 0.9862 0.0130 -0.1649
vn 0.0000 -1.0000 -0.0014
vn -0.9962 -0.0001 0.0867
vn -0.9956 -0.0074 0.0937
vn -0.9956 -0.0073 0.0936
vn 0.0000 -0.0014 1.0000
vn 0.0000 0.0014 -1.0000
vn 0.0000 0.1504 -0.9886
vn 0.9883 0.0002 -0.1528
vn -0.9948 -0.0147 0.1008
vn 0.0000 0.2961 -0.9551
vn 0.0000 -0.3906 0.9205
vn 0.9839 0.1369 0.1153
vn 0.9862 0.1333 0.0980
vn 0.0000 0.5280 -0.8493
vn -0.9962 -0.0736 -0.0458
vn -0.9956 -0.0757 -0.0557
vn 0.0000 -0.8493 -0.5280
vn 0.0000 0.8493 0.5280
vn 0.0000 0.7611 0.6487
vn 0.9883 0.1297 0.0807
vn -0.9948 -0.0779 -0.0656
vn 0.0000 0.6558 0.7549
vn 0.0000 0.5359 0.8443
vn -0.9962 0.0732 -0.0464
vn -0.9962 0.0741 -0.0458
vn 0.0000 -0.8443 0.5359
vn 0.9883 -0.1290 0.0819
vn 0.9883 -0.1298 0.0803
vn 0.0000 0.8443 -0.5359
usemtl phong1SG.002
s 1
f 1/1/1 2/2/2 3/3/3
f 2/2/2 4/4/4 3/3/3
f 2/2/2 5/5/5 4/4/4
f 6/6/6 7/7/6 8/8/6 9/9/6
f 9/10/7 8/11/7 10/12/7 11/13/7
f 12/14/8 13/15/8 14/16/8 15/17/8
f 16/18/9 12/14/9 15/17/9 17/19/9
f 18/20/10 19/21/10 20/22/10 21/23/10
f 19/21/11 16/24/11 17/25/11 20/22/11
f 15/17/12 14/16/12 22/26/12 23/27/12
f 17/19/13 15/17/14 23/27/14 24/28/13
f 21/23/15 20/22/15 25/29/15 26/30/15
f 20/22/16 17/25/13 24/31/13 25/29/16
f 23/27/17 22/26/17 7/7/17 6/6/17
f 24/28/18 23/27/18 6/6/18 9/32/18
f 26/30/19 25/29/19 11/13/19 10/12/19
f 25/29/20 24/31/20 9/33/20 11/13/20
f 27/34/21 12/14/21 16/18/21 28/35/21
f 28/36/22 16/24/22 19/21/22 29/37/22
f 30/38/19 29/37/19 31/39/19 32/40/19
f 33/41/19 30/38/19 32/40/19 34/42/19
f 35/43/23 36/44/23 37/45/23 38/46/23
f 38/47/24 37/48/24 39/49/24 40/50/24
f 41/51/25 27/34/25 42/52/25 43/53/25
f 27/34/26 28/35/26 44/54/26 42/52/26
f 28/36/27 29/37/27 45/55/27 44/56/27
f 29/37/28 30/38/28 46/57/28 45/55/28
f 43/53/29 42/52/29 47/58/29 48/59/29
f 42/52/30 44/54/31 49/60/31 47/58/30
f 44/56/31 45/55/32 50/61/32 49/62/31
f 45/55/33 46/57/33 51/63/33 50/61/33
f 48/59/17 47/58/17 36/44/17 35/43/17
f 47/58/34 49/60/34 37/64/34 36/44/34
f 49/62/35 50/61/35 39/49/35 37/65/35
f 50/61/19 51/63/19 40/50/19 39/49/19
f 52/66/36 53/67/36 54/68/36 55/69/36
f 56/70/37 57/71/37 58/72/37 59/73/37
f 60/74/38 61/75/38 62/76/38 63/77/38
f 61/75/39 64/78/39 65/79/39 62/76/39
f 66/80/40 67/81/40 68/82/40 69/83/40
f 70/84/41 71/85/41 72/86/41
f 73/87/41 74/88/41 72/86/41
f 74/88/41 75/89/41 72/86/41
f 75/89/41 70/84/41 72/86/41
f 71/85/42 70/84/42 68/82/42 76/90/42
f 74/88/43 73/87/43 58/72/43 77/91/43
f 75/89/44 74/88/44 77/91/44 69/83/44
f 70/84/45 75/89/45 69/83/45 68/82/45
f 56/70/46 59/73/46 78/92/46 79/93/46
f 57/94/47 80/95/47 61/96/47 60/97/47
f 77/91/41 58/72/41 63/77/41 62/76/41
f 58/72/48 57/71/48 60/98/48 63/77/48
f 80/95/47 66/99/47 64/100/47 61/96/47
f 66/80/49 69/83/49 65/79/49 64/101/49
f 69/83/41 77/91/41 62/76/41 65/79/41
f 76/90/41 68/82/41 55/69/41 54/68/41
f 68/82/50 67/81/50 52/102/50 55/69/50
f 81/103/51 82/104/51 83/105/51 84/106/51
f 81/107/17 85/108/17 86/109/17
f 82/110/17 81/107/17 86/109/17
f 87/111/52 88/112/52 89/113/52 90/114/52
f 91/115/53 87/111/53 90/114/53 92/116/53
f 88/117/17 87/118/17 93/119/17
f 94/120/17 88/117/17 93/119/17
f 87/118/17 91/121/17 93/119/17
f 95/122/54 96/123/54 97/124/54 98/125/54
f 96/126/51 99/127/51 100/128/51 97/129/51
f 101/130/53 95/122/53 98/125/53 102/131/53
f 96/132/17 95/133/17 103/134/17
f 99/135/17 96/132/17 103/134/17
f 95/133/17 101/136/17 103/134/17
f 98/137/19 97/138/19 104/139/19
f 97/138/19 100/140/19 104/139/19
f 102/141/19 98/137/19 104/139/19
f 105/142/55 106/143/55 107/144/55 108/145/55
f 108/146/56 107/147/56 109/148/57 110/149/57
f 111/150/58 112/151/58 113/152/58 114/153/58
f 114/153/59 113/152/59 115/154/60 116/155/61
f 106/143/62 115/154/62 109/156/62 107/157/62
f 111/158/63 114/153/63 116/155/64 110/159/64
f 111/160/65 110/149/57 109/148/57 112/161/65
f 112/162/62 109/156/62 115/154/62 113/152/62
f 116/155/61 115/154/60 106/143/66 105/142/66
f 110/159/64 116/155/64 105/142/67 108/163/67
f 117/164/68 118/165/68 119/166/68 120/167/68
f 120/168/69 119/169/69 121/170/70 122/171/70
f 123/172/71 124/173/71 125/174/71 126/175/71
f 126/175/72 125/174/72 127/176/73 128/177/73
f 118/165/74 127/176/74 121/178/74 119/179/74
f 123/180/75 126/175/75 128/177/76 122/181/76
f 123/182/77 122/171/70 121/170/70 124/183/77
f 124/184/74 121/178/74 127/176/74 125/174/74
f 128/177/73 127/176/73 118/165/78 117/164/78
f 122/181/76 128/177/76 117/164/79 120/185/79
f 129/186/80 130/187/80 131/188/80 132/189/80
f 132/189/81 131/188/81 133/190/81 134/191/82
f 129/192/83 132/189/83 134/191/83 135/193/83
f 129/194/84 135/195/85 136/196/84 130/197/84
f 130/198/86 136/199/86 133/190/86 131/188/86
