# Blender v2.81 (sub 16) OBJ File: ''
# www.blender.org
mtllib lamp-calle.mtl
o Cube.004
v -1.633312 -0.391349 0.624742
v -1.633312 -0.146451 0.624742
v -1.633312 -0.391349 -0.624742
v -1.633312 -0.146451 -0.624742
v 1.187408 -0.391349 0.624742
v 1.187408 -0.146451 0.624742
v 1.187408 -0.391349 -0.624742
v 1.187408 -0.146451 -0.624742
v 0.031998 -0.391349 -0.624742
v 0.031998 -0.146451 -0.624742
v 0.031998 -0.391349 0.624742
v 0.031998 -0.146451 0.624742
v 0.417134 -0.146451 -0.624742
v 0.802271 -0.146451 -0.624742
v 0.417134 -0.391349 0.624742
v 0.802271 -0.391349 0.624742
v 0.802271 -0.391349 -0.624742
v 0.417134 -0.391349 -0.624742
v 0.802271 -0.146451 0.624742
v 0.417134 -0.146451 0.624742
v 0.871889 -0.391349 -0.593904
v 1.117791 -0.391349 -0.593904
v 1.117791 -0.391349 0.593904
v 0.871889 -0.391349 0.593904
v 0.101615 -0.391349 -0.593904
v 0.347517 -0.391349 -0.593904
v 0.347517 -0.391349 0.593904
v 0.101615 -0.391349 0.593904
v 0.486752 -0.391349 -0.593904
v 0.732654 -0.391349 -0.593904
v 0.732654 -0.391349 0.593904
v 0.486752 -0.391349 0.593904
v 1.117791 -0.363780 -0.593904
v 0.871889 -0.363780 -0.593904
v 0.871889 -0.363780 0.593904
v 1.117791 -0.363780 0.593904
v 0.347517 -0.363780 -0.593904
v 0.101615 -0.363780 -0.593904
v 0.101615 -0.363780 0.593904
v 0.347517 -0.363780 0.593904
v 0.732654 -0.363780 -0.593904
v 0.486752 -0.363780 -0.593904
v 0.486752 -0.363780 0.593904
v 0.732654 -0.363780 0.593904
v -0.800657 -0.391349 -0.624742
v -0.800657 -0.146451 0.624742
v -0.800658 -0.146451 -0.624742
v -0.800658 -0.391349 0.624742
v -0.384330 -0.146451 -0.624742
v -0.384330 -0.391349 0.624742
v -0.384330 -0.391349 -0.624742
v -0.384330 -0.146451 0.624742
v -0.313242 -0.391349 -0.593253
v -0.039091 -0.391349 -0.593253
v -0.039091 -0.391349 0.593253
v -0.313242 -0.391349 0.593253
v -0.729569 -0.391349 -0.593253
v -0.455418 -0.391349 -0.593253
v -0.455418 -0.391349 0.593253
v -0.729569 -0.391349 0.593253
v -0.039091 -0.342527 -0.593253
v -0.313242 -0.342527 -0.593253
v -0.313242 -0.342527 0.593253
v -0.039091 -0.342527 0.593253
v -0.455418 -0.342527 -0.593253
v -0.729569 -0.342527 -0.593253
v -0.729569 -0.342527 0.593253
v -0.455418 -0.342527 0.593253
vt 0.347036 0.506170
vt 0.368830 0.506170
vt 0.368830 0.743830
vt 0.347036 0.743830
vt 0.278766 0.506170
vt 0.300561 0.506170
vt 0.300561 0.743830
vt 0.278766 0.743830
vt 0.312901 0.506170
vt 0.334695 0.506170
vt 0.334695 0.743830
vt 0.312901 0.743830
vt 0.241998 0.506301
vt 0.266296 0.506301
vt 0.266296 0.743699
vt 0.241998 0.743699
vt 0.205099 0.506301
vt 0.229397 0.506301
vt 0.229397 0.743699
vt 0.205099 0.743699
vt 0.375000 0.000000
vt 0.625000 0.000000
vt 0.625000 0.250000
vt 0.375000 0.250000
vt 0.375000 0.465865
vt 0.625000 0.465865
vt 0.625000 0.500000
vt 0.375000 0.500000
vt 0.625000 0.750000
vt 0.375000 0.750000
vt 0.375000 0.926202
vt 0.625000 0.926202
vt 0.625000 1.000000
vt 0.375000 1.000000
vt 0.312901 0.743830
vt 0.312901 0.506170
vt 0.801202 0.500000
vt 0.875000 0.500000
vt 0.875000 0.750000
vt 0.801202 0.750000
vt 0.693269 0.500000
vt 0.727404 0.500000
vt 0.727404 0.750000
vt 0.693269 0.750000
vt 0.241998 0.506301
vt 0.266296 0.506301
vt 0.375000 0.818269
vt 0.625000 0.818269
vt 0.625000 0.852404
vt 0.375000 0.852404
vt 0.375000 0.360697
vt 0.625000 0.360697
vt 0.625000 0.397596
vt 0.375000 0.397596
vt 0.625000 0.784135
vt 0.375000 0.784135
vt 0.659135 0.500000
vt 0.659135 0.750000
vt 0.300561 0.506170
vt 0.300561 0.743830
vt 0.368830 0.743830
vt 0.347036 0.743830
vt 0.625000 0.431731
vt 0.375000 0.431731
vt 0.340865 0.500000
vt 0.368830 0.506170
vt 0.347036 0.506170
vt 0.340865 0.750000
vt 0.272596 0.500000
vt 0.306731 0.500000
vt 0.278766 0.506170
vt 0.306731 0.750000
vt 0.272596 0.750000
vt 0.278766 0.743830
vt 0.334695 0.506170
vt 0.334695 0.743830
vt 0.625000 0.323798
vt 0.375000 0.323798
vt 0.125000 0.500000
vt 0.198798 0.500000
vt 0.198798 0.750000
vt 0.125000 0.750000
vt 0.764303 0.500000
vt 0.764303 0.750000
vt 0.375000 0.889303
vt 0.625000 0.889303
vt 0.229397 0.743699
vt 0.205099 0.743699
vt 0.235697 0.500000
vt 0.266296 0.743699
vt 0.235697 0.750000
vt 0.241998 0.743699
vt 0.229397 0.506301
vt 0.205099 0.506301
vn 0.0000 -1.0000 0.0000
vn -1.0000 0.0000 0.0000
vn 0.0000 0.0000 -1.0000
vn 1.0000 0.0000 0.0000
vn 0.0000 0.0000 1.0000
vn 0.0000 1.0000 0.0000
usemtl lampara
s off
f 34/1/1 33/2/1 36/3/1 35/4/1
f 38/5/1 37/6/1 40/7/1 39/8/1
f 42/9/1 41/10/1 44/11/1 43/12/1
f 62/13/1 61/14/1 64/15/1 63/16/1
f 66/17/1 65/18/1 68/19/1 67/20/1
usemtl metal1
f 1/21/2 2/22/2 4/23/2 3/24/2
f 17/25/3 14/26/3 8/27/3 7/28/3
f 7/28/4 8/27/4 6/29/4 5/30/4
f 48/31/5 46/32/5 2/33/5 1/34/5
f 32/35/4 29/36/4 42/9/4 43/12/4
f 47/37/6 4/38/6 2/39/6 46/40/6
f 13/41/6 10/42/6 12/43/6 20/44/6
f 53/45/5 54/46/5 61/14/5 62/13/5
f 15/47/5 20/48/5 12/49/5 11/50/5
f 51/51/3 49/52/3 10/53/3 9/54/3
f 5/30/5 6/29/5 19/55/5 16/56/5
f 16/56/5 19/55/5 20/48/5 15/47/5
f 8/27/6 14/57/6 19/58/6 6/29/6
f 14/57/6 13/41/6 20/44/6 19/58/6
f 26/59/2 27/60/2 40/7/2 37/6/2
f 23/61/3 24/62/3 35/4/3 36/3/3
f 9/54/3 10/53/3 13/63/3 18/64/3
f 18/64/3 13/63/3 14/26/3 17/25/3
f 17/65/1 7/28/1 22/66/1 21/67/1
f 7/28/1 5/30/1 23/61/1 22/66/1
f 5/30/1 16/68/1 24/62/1 23/61/1
f 16/68/1 17/65/1 21/67/1 24/62/1
f 9/69/1 18/70/1 26/59/1 25/71/1
f 18/70/1 15/72/1 27/60/1 26/59/1
f 15/72/1 11/73/1 28/74/1 27/60/1
f 11/73/1 9/69/1 25/71/1 28/74/1
f 18/70/1 17/65/1 30/75/1 29/36/1
f 17/65/1 16/68/1 31/76/1 30/75/1
f 16/68/1 15/72/1 32/35/1 31/76/1
f 15/72/1 18/70/1 29/36/1 32/35/1
f 21/67/5 22/66/5 33/2/5 34/1/5
f 27/60/3 28/74/3 39/8/3 40/7/3
f 30/75/2 31/76/2 44/11/2 41/10/2
f 24/62/4 21/67/4 34/1/4 35/4/4
f 25/71/5 26/59/5 37/6/5 38/5/5
f 31/76/3 32/35/3 43/12/3 44/11/3
f 22/66/2 23/61/2 36/3/2 33/2/2
f 28/74/4 25/71/4 38/5/4 39/8/4
f 29/36/5 30/75/5 41/10/5 42/9/5
f 3/24/3 4/23/3 47/77/3 45/78/3
f 3/79/1 45/80/1 48/81/1 1/82/1
f 49/83/6 47/37/6 46/40/6 52/84/6
f 50/85/5 52/86/5 46/32/5 48/31/5
f 11/50/5 12/49/5 52/86/5 50/85/5
f 10/42/6 49/83/6 52/84/6 12/43/6
f 45/78/3 47/77/3 49/52/3 51/51/3
f 59/87/3 60/88/3 67/20/3 68/19/3
f 51/89/1 9/69/1 54/46/1 53/45/1
f 9/69/1 11/73/1 55/90/1 54/46/1
f 11/73/1 50/91/1 56/92/1 55/90/1
f 50/91/1 51/89/1 53/45/1 56/92/1
f 45/80/1 51/89/1 58/93/1 57/94/1
f 51/89/1 50/91/1 59/87/1 58/93/1
f 50/91/1 48/81/1 60/88/1 59/87/1
f 48/81/1 45/80/1 57/94/1 60/88/1
f 60/88/4 57/94/4 66/17/4 67/20/4
f 55/90/3 56/92/3 63/16/3 64/15/3
f 56/92/4 53/45/4 62/13/4 63/16/4
f 58/93/2 59/87/2 68/19/2 65/18/2
f 57/94/5 58/93/5 65/18/5 66/17/5
f 54/46/2 55/90/2 64/15/2 61/14/2
o Cylinder.001
v -1.916139 -9.550800 0.000000
v -1.916139 -0.240177 0.000000
v -1.916139 -9.550800 -0.157535
v -1.916139 -0.240177 -0.157535
v -1.855853 -9.550800 -0.145543
v -1.855853 -0.240177 -0.145543
v -1.804745 -9.550800 -0.111394
v -1.804745 -0.240177 -0.111394
v -1.770596 -9.550800 -0.060286
v -1.770596 -0.240177 -0.060286
v -1.758604 -9.550800 0.000000
v -1.758604 -0.240177 0.000000
v -1.770596 -9.550800 0.060286
v -1.770596 -0.240177 0.060286
v -1.804745 -9.550800 0.111394
v -1.804745 -0.240177 0.111394
v -1.855853 -9.550800 0.145543
v -1.855853 -0.240177 0.145543
v -1.916139 -9.550800 0.157535
v -1.916139 -0.240177 0.157535
v -1.976425 -9.550800 0.145543
v -1.976425 -0.240177 0.145543
v -2.027533 -9.550800 0.111394
v -2.027533 -0.240177 0.111394
v -2.061682 -9.550800 0.060286
v -2.061682 -0.240177 0.060286
v -2.073674 -9.550800 -0.000000
v -2.073674 -0.240177 -0.000000
v -2.061682 -9.550800 -0.060286
v -2.061682 -0.240177 -0.060286
v -2.027533 -9.550800 -0.111394
v -2.027533 -0.240177 -0.111394
v -1.976425 -9.550800 -0.145543
v -1.976425 -0.240177 -0.145543
v -1.916139 -0.642659 -0.157535
v -1.916139 -0.928729 -0.157535
v -1.855853 -0.928729 -0.145543
v -1.855853 -0.642659 -0.145543
v -1.804745 -0.928729 -0.111394
v -1.804745 -0.642659 -0.111394
v -1.770596 -0.928729 -0.060286
v -1.770596 -0.642659 -0.060286
v -1.758604 -0.928729 0.000000
v -1.758604 -0.642659 0.000000
v -1.770596 -0.928729 0.060286
v -1.770596 -0.642659 0.060286
v -1.804745 -0.928729 0.111394
v -1.804745 -0.642659 0.111394
v -1.855853 -0.928729 0.145543
v -1.855853 -0.642659 0.145543
v -1.916139 -0.928729 0.157535
v -1.916139 -0.642659 0.157535
v -1.976425 -0.928729 0.145543
v -1.976425 -0.642659 0.145543
v -2.027533 -0.928729 0.111394
v -2.027533 -0.642659 0.111394
v -2.061682 -0.928729 0.060286
v -2.061682 -0.642659 0.060286
v -2.073674 -0.928729 -0.000000
v -2.073674 -0.642659 -0.000000
v -2.061682 -0.928729 -0.060286
v -2.061682 -0.642659 -0.060286
v -2.027533 -0.928729 -0.111394
v -2.027533 -0.642659 -0.111394
v -1.976425 -0.928729 -0.145543
v -1.976425 -0.642659 -0.145543
vt 0.750000 0.250000
vt 0.750000 0.490000
vt 0.841844 0.471731
vt 0.250000 0.250000
vt 0.341844 0.471731
vt 0.250000 0.490000
vt 1.000000 0.833333
vt 1.000000 1.000000
vt 0.937500 1.000000
vt 0.937500 0.833333
vt 0.919706 0.419706
vt 0.419706 0.419706
vt 0.875000 1.000000
vt 0.875000 0.833333
vt 0.971731 0.341844
vt 0.471731 0.341844
vt 0.812500 1.000000
vt 0.812500 0.833333
vt 0.990000 0.250000
vt 0.490000 0.250000
vt 0.750000 1.000000
vt 0.750000 0.833333
vt 0.971731 0.158156
vt 0.471731 0.158156
vt 0.687500 1.000000
vt 0.687500 0.833333
vt 0.919706 0.080294
vt 0.419706 0.080294
vt 0.625000 1.000000
vt 0.625000 0.833333
vt 0.841844 0.028269
vt 0.341844 0.028269
vt 0.562500 1.000000
vt 0.562500 0.833333
vt 0.750000 0.010000
vt 0.250000 0.010000
vt 0.500000 1.000000
vt 0.500000 0.833333
vt 0.658156 0.028269
vt 0.158156 0.028269
vt 0.437500 1.000000
vt 0.437500 0.833333
vt 0.580294 0.080294
vt 0.080294 0.080294
vt 0.375000 1.000000
vt 0.375000 0.833333
vt 0.528269 0.158156
vt 0.028269 0.158156
vt 0.312500 1.000000
vt 0.312500 0.833333
vt 0.510000 0.250000
vt 0.010000 0.250000
vt 0.250000 1.000000
vt 0.250000 0.833333
vt 0.528269 0.341844
vt 0.028269 0.341844
vt 0.187500 1.000000
vt 0.187500 0.833333
vt 0.580294 0.419706
vt 0.080294 0.419706
vt 0.125000 1.000000
vt 0.125000 0.833333
vt 0.658156 0.471731
vt 0.158156 0.471731
vt 0.062500 1.000000
vt 0.062500 0.833333
vt 0.000000 1.000000
vt 0.000000 0.833333
vt 0.062500 0.500000
vt 0.062500 0.666667
vt 0.000000 0.666667
vt 0.000000 0.500000
vt 0.125000 0.500000
vt 0.125000 0.666667
vt 0.187500 0.500000
vt 0.187500 0.666667
vt 0.250000 0.500000
vt 0.250000 0.666667
vt 0.312500 0.500000
vt 0.312500 0.666667
vt 0.375000 0.500000
vt 0.375000 0.666667
vt 0.437500 0.500000
vt 0.437500 0.666667
vt 0.500000 0.500000
vt 0.500000 0.666667
vt 0.562500 0.500000
vt 0.562500 0.666667
vt 0.625000 0.500000
vt 0.625000 0.666667
vt 0.687500 0.500000
vt 0.687500 0.666667
vt 0.750000 0.500000
vt 0.750000 0.666667
vt 0.812500 0.500000
vt 0.812500 0.666667
vt 0.875000 0.500000
vt 0.875000 0.666667
vt 0.937500 0.500000
vt 0.937500 0.666667
vt 1.000000 0.500000
vt 1.000000 0.666667
vn 0.0000 -1.0000 0.0000
vn 0.0000 1.0000 0.0000
vn 0.1951 0.0000 -0.9808
vn 0.5556 0.0000 -0.8315
vn 0.8315 0.0000 -0.5556
vn 0.9808 0.0000 -0.1951
vn 0.9808 0.0000 0.1951
vn 0.8315 0.0000 0.5556
vn 0.5556 0.0000 0.8315
vn 0.1951 0.0000 0.9808
vn -0.1951 0.0000 0.9808
vn -0.5556 0.0000 0.8315
vn -0.8315 0.0000 0.5556
vn -0.9808 0.0000 0.1951
vn -0.9808 0.0000 -0.1951
vn -0.8315 0.0000 -0.5556
vn -0.5556 0.0000 -0.8315
vn -0.1951 0.0000 -0.9808
usemtl metal1
s off
f 69/95/7 71/96/7 73/97/7
f 70/98/8 74/99/8 72/100/8
f 104/101/9 72/102/9 74/103/9 105/104/9
f 69/95/7 73/97/7 75/105/7
f 70/98/8 76/106/8 74/99/8
f 105/104/10 74/103/10 76/107/10 107/108/10
f 69/95/7 75/105/7 77/109/7
f 70/98/8 78/110/8 76/106/8
f 107/108/11 76/107/11 78/111/11 109/112/11
f 69/95/7 77/109/7 79/113/7
f 70/98/8 80/114/8 78/110/8
f 109/112/12 78/111/12 80/115/12 111/116/12
f 69/95/7 79/113/7 81/117/7
f 70/98/8 82/118/8 80/114/8
f 111/116/13 80/115/13 82/119/13 113/120/13
f 69/95/7 81/117/7 83/121/7
f 70/98/8 84/122/8 82/118/8
f 113/120/14 82/119/14 84/123/14 115/124/14
f 69/95/7 83/121/7 85/125/7
f 70/98/8 86/126/8 84/122/8
f 115/124/15 84/123/15 86/127/15 117/128/15
f 69/95/7 85/125/7 87/129/7
f 70/98/8 88/130/8 86/126/8
f 117/128/16 86/127/16 88/131/16 119/132/16
f 69/95/7 87/129/7 89/133/7
f 70/98/8 90/134/8 88/130/8
f 119/132/17 88/131/17 90/135/17 121/136/17
f 69/95/7 89/133/7 91/137/7
f 70/98/8 92/138/8 90/134/8
f 121/136/18 90/135/18 92/139/18 123/140/18
f 69/95/7 91/137/7 93/141/7
f 70/98/8 94/142/8 92/138/8
f 123/140/19 92/139/19 94/143/19 125/144/19
f 69/95/7 93/141/7 95/145/7
f 70/98/8 96/146/8 94/142/8
f 125/144/20 94/143/20 96/147/20 127/148/20
f 69/95/7 95/145/7 97/149/7
f 70/98/8 98/150/8 96/146/8
f 127/148/21 96/147/21 98/151/21 129/152/21
f 69/95/7 97/149/7 99/153/7
f 70/98/8 100/154/8 98/150/8
f 129/152/22 98/151/22 100/155/22 131/156/22
f 69/95/7 99/153/7 101/157/7
f 70/98/8 102/158/8 100/154/8
f 131/156/23 100/155/23 102/159/23 133/160/23
f 69/95/7 101/157/7 71/96/7
f 70/98/8 72/100/8 102/158/8
f 133/160/24 102/159/24 72/161/24 104/162/24
f 101/163/24 134/164/24 103/165/24 71/166/24
f 134/164/16 133/160/16 104/162/16 103/165/16
f 99/167/23 132/168/23 134/164/23 101/163/23
f 132/168/15 131/156/15 133/160/15 134/164/15
f 97/169/22 130/170/22 132/168/22 99/167/22
f 130/170/14 129/152/14 131/156/14 132/168/14
f 95/171/21 128/172/21 130/170/21 97/169/21
f 128/172/13 127/148/13 129/152/13 130/170/13
f 93/173/20 126/174/20 128/172/20 95/171/20
f 126/174/12 125/144/12 127/148/12 128/172/12
f 91/175/19 124/176/19 126/174/19 93/173/19
f 124/176/11 123/140/11 125/144/11 126/174/11
f 89/177/18 122/178/18 124/176/18 91/175/18
f 122/178/10 121/136/10 123/140/10 124/176/10
f 87/179/17 120/180/17 122/178/17 89/177/17
f 120/180/9 119/132/9 121/136/9 122/178/9
f 85/181/16 118/182/16 120/180/16 87/179/16
f 118/182/24 117/128/24 119/132/24 120/180/24
f 83/183/15 116/184/15 118/182/15 85/181/15
f 116/184/23 115/124/23 117/128/23 118/182/23
f 81/185/14 114/186/14 116/184/14 83/183/14
f 114/186/22 113/120/22 115/124/22 116/184/22
f 79/187/13 112/188/13 114/186/13 81/185/13
f 112/188/21 111/116/21 113/120/21 114/186/21
f 77/189/12 110/190/12 112/188/12 79/187/12
f 110/190/20 109/112/20 111/116/20 112/188/20
f 75/191/11 108/192/11 110/190/11 77/189/11
f 108/192/19 107/108/19 109/112/19 110/190/19
f 73/193/10 106/194/10 108/192/10 75/191/10
f 106/194/18 105/104/18 107/108/18 108/192/18
f 71/195/9 103/196/9 106/194/9 73/193/9
f 103/196/17 104/101/17 105/104/17 106/194/17
o Cylinder.002
v -1.916139 -0.418575 -0.157535
v -1.916139 -0.704646 -0.157535
v -1.855853 -0.704646 -0.145543
v -1.855853 -0.418575 -0.145543
v -1.804745 -0.704646 -0.111394
v -1.804745 -0.418575 -0.111394
v -1.770596 -0.704646 -0.060286
v -1.770596 -0.418575 -0.060286
v -1.758604 -0.704646 0.000000
v -1.758604 -0.418575 0.000000
v -1.770596 -0.704646 0.060286
v -1.770596 -0.418575 0.060286
v -1.804745 -0.704646 0.111394
v -1.804745 -0.418575 0.111394
v -1.855853 -0.704646 0.145543
v -1.855853 -0.418575 0.145543
v -1.916139 -0.704646 0.157535
v -1.916139 -0.418575 0.157535
v -1.976425 -0.704646 0.145543
v -1.976425 -0.418575 0.145543
v -2.027533 -0.704646 0.111394
v -2.027533 -0.418575 0.111394
v -2.061682 -0.704646 0.060286
v -2.061682 -0.418575 0.060286
v -2.073674 -0.704646 -0.000000
v -2.073674 -0.418575 -0.000000
v -2.061682 -0.704646 -0.060286
v -2.061682 -0.418575 -0.060286
v -2.027533 -0.704646 -0.111394
v -2.027533 -0.418575 -0.111394
v -1.976425 -0.704646 -0.145543
v -1.976425 -0.418575 -0.145543
v -1.916139 -0.418575 -0.186670
v -1.916139 -0.704646 -0.186670
v -1.844703 -0.704646 -0.172461
v -1.844703 -0.418575 -0.172461
v -1.784143 -0.704646 -0.131996
v -1.784143 -0.418575 -0.131996
v -1.743678 -0.704646 -0.071436
v -1.743678 -0.418575 -0.071436
v -1.729469 -0.704646 0.000000
v -1.729469 -0.418575 0.000000
v -1.743678 -0.704646 0.071436
v -1.743678 -0.418575 0.071436
v -1.784143 -0.704646 0.131996
v -1.784143 -0.418575 0.131996
v -1.844703 -0.704646 0.172461
v -1.844703 -0.418575 0.172461
v -1.916139 -0.704646 0.186670
v -1.916139 -0.418575 0.186670
v -1.987574 -0.704646 0.172461
v -1.987574 -0.418575 0.172461
v -2.048135 -0.704646 0.131996
v -2.048135 -0.418575 0.131996
v -2.088599 -0.704646 0.071436
v -2.088599 -0.418575 0.071436
v -2.102809 -0.704646 -0.000000
v -2.102809 -0.418575 -0.000000
v -2.088599 -0.704646 -0.071436
v -2.088599 -0.418575 -0.071436
v -2.048135 -0.704646 -0.131996
v -2.048135 -0.418575 -0.131996
v -1.987574 -0.704646 -0.172461
v -1.987574 -0.418575 -0.172461
vt 0.062500 0.666667
vt 0.000000 0.666667
vt 0.000000 0.833333
vt 0.062500 0.833333
vt 0.125000 0.666667
vt 0.125000 0.833333
vt 0.187500 0.666667
vt 0.187500 0.833333
vt 0.250000 0.666667
vt 0.250000 0.833333
vt 0.312500 0.666667
vt 0.312500 0.833333
vt 0.375000 0.666667
vt 0.375000 0.833333
vt 0.437500 0.666667
vt 0.437500 0.833333
vt 0.500000 0.666667
vt 0.500000 0.833333
vt 0.562500 0.666667
vt 0.562500 0.833333
vt 0.625000 0.666667
vt 0.625000 0.833333
vt 0.687500 0.666667
vt 0.687500 0.833333
vt 0.750000 0.666667
vt 0.750000 0.833333
vt 0.812500 0.666667
vt 0.812500 0.833333
vt 0.875000 0.666667
vt 0.875000 0.833333
vt 0.937500 0.666667
vt 0.937500 0.833333
vt 1.000000 0.666667
vt 1.000000 0.833333
vt 0.062500 0.666667
vt 0.062500 0.833333
vt 0.000000 0.833333
vt 0.000000 0.666667
vt 0.125000 0.666667
vt 0.125000 0.833333
vt 0.187500 0.666667
vt 0.187500 0.833333
vt 0.250000 0.666667
vt 0.250000 0.833333
vt 0.312500 0.666667
vt 0.312500 0.833333
vt 0.375000 0.666667
vt 0.375000 0.833333
vt 0.437500 0.666667
vt 0.437500 0.833333
vt 0.500000 0.666667
vt 0.500000 0.833333
vt 0.562500 0.666667
vt 0.562500 0.833333
vt 0.625000 0.666667
vt 0.625000 0.833333
vt 0.687500 0.666667
vt 0.687500 0.833333
vt 0.750000 0.666667
vt 0.750000 0.833333
vt 0.812500 0.666667
vt 0.812500 0.833333
vt 0.875000 0.666667
vt 0.875000 0.833333
vt 0.937500 0.666667
vt 0.937500 0.833333
vt 1.000000 0.666667
vt 1.000000 0.833333
vn -0.1951 0.0000 -0.9808
vn -0.5556 0.0000 -0.8315
vn -0.8315 0.0000 -0.5556
vn -0.9808 0.0000 -0.1951
vn -0.9808 0.0000 0.1951
vn -0.8315 0.0000 0.5556
vn -0.5556 0.0000 0.8315
vn -0.1951 0.0000 0.9808
vn 0.1951 0.0000 0.9808
vn 0.5556 0.0000 0.8315
vn 0.8315 0.0000 0.5556
vn 0.9808 0.0000 0.1951
vn 0.9808 0.0000 -0.1951
vn 0.8315 0.0000 -0.5556
vn 0.5556 0.0000 -0.8315
vn 0.1951 0.0000 -0.9808
vn 0.0000 -1.0000 0.0000
vn 0.0000 1.0000 0.0000
usemtl None
s off
f 166/197/25 135/198/25 136/199/25 165/200/25
f 164/201/26 166/197/26 165/200/26 163/202/26
f 162/203/27 164/201/27 163/202/27 161/204/27
f 160/205/28 162/203/28 161/204/28 159/206/28
f 158/207/29 160/205/29 159/206/29 157/208/29
f 156/209/30 158/207/30 157/208/30 155/210/30
f 154/211/31 156/209/31 155/210/31 153/212/31
f 152/213/32 154/211/32 153/212/32 151/214/32
f 150/215/33 152/213/33 151/214/33 149/216/33
f 148/217/34 150/215/34 149/216/34 147/218/34
f 146/219/35 148/217/35 147/218/35 145/220/35
f 144/221/36 146/219/36 145/220/36 143/222/36
f 142/223/37 144/221/37 143/222/37 141/224/37
f 140/225/38 142/223/38 141/224/38 139/226/38
f 138/227/39 140/225/39 139/226/39 137/228/39
f 135/229/40 138/227/40 137/228/40 136/230/40
f 198/231/33 197/232/33 168/233/33 167/234/33
f 196/235/34 195/236/34 197/232/34 198/231/34
f 194/237/35 193/238/35 195/236/35 196/235/35
f 192/239/36 191/240/36 193/238/36 194/237/36
f 190/241/37 189/242/37 191/240/37 192/239/37
f 188/243/38 187/244/38 189/242/38 190/241/38
f 186/245/39 185/246/39 187/244/39 188/243/39
f 184/247/40 183/248/40 185/246/40 186/245/40
f 182/249/25 181/250/25 183/248/25 184/247/25
f 180/251/26 179/252/26 181/250/26 182/249/26
f 178/253/27 177/254/27 179/252/27 180/251/27
f 176/255/28 175/256/28 177/254/28 178/253/28
f 174/257/29 173/258/29 175/256/29 176/255/29
f 172/259/30 171/260/30 173/258/30 174/257/30
f 170/261/31 169/262/31 171/260/31 172/259/31
f 167/263/32 168/264/32 169/262/32 170/261/32
f 148/217/41 146/219/41 178/253/41 180/251/41
f 159/206/42 161/204/42 193/238/42 191/240/42
f 145/220/42 147/218/42 179/252/42 177/254/42
f 160/205/41 158/207/41 190/241/41 192/239/41
f 146/219/41 144/221/41 176/255/41 178/253/41
f 157/208/42 159/206/42 191/240/42 189/242/42
f 143/222/42 145/220/42 177/254/42 175/256/42
f 158/207/41 156/209/41 188/243/41 190/241/41
f 144/221/41 142/223/41 174/257/41 176/255/41
f 155/210/42 157/208/42 189/242/42 187/244/42
f 141/224/42 143/222/42 175/256/42 173/258/42
f 156/209/41 154/211/41 186/245/41 188/243/41
f 142/223/41 140/225/41 172/259/41 174/257/41
f 153/212/42 155/210/42 187/244/42 185/246/42
f 135/198/41 166/197/41 198/231/41 167/234/41
f 139/226/42 141/224/42 173/258/42 171/260/42
f 154/211/41 152/213/41 184/247/41 186/245/41
f 165/200/42 136/199/42 168/233/42 197/232/42
f 140/225/41 138/227/41 170/261/41 172/259/41
f 151/214/42 153/212/42 185/246/42 183/248/42
f 166/197/41 164/201/41 196/235/41 198/231/41
f 137/228/42 139/226/42 171/260/42 169/262/42
f 152/213/41 150/215/41 182/249/41 184/247/41
f 163/202/42 165/200/42 197/232/42 195/236/42
f 138/227/41 135/229/41 167/263/41 170/261/41
f 149/216/42 151/214/42 183/248/42 181/250/42
f 164/201/41 162/203/41 194/237/41 196/235/41
f 136/230/42 137/228/42 169/262/42 168/264/42
f 150/215/41 148/217/41 180/251/41 182/249/41
f 161/204/42 163/202/42 195/236/42 193/238/42
f 147/218/42 149/216/42 181/250/42 179/252/42
f 162/203/41 160/205/41 192/239/41 194/237/41
o Cube.005
v -1.768896 -0.615003 0.093349
v -1.768896 -0.376342 0.093349
v -1.768896 -0.615003 -0.093349
v -1.768896 -0.376342 -0.093349
v -1.212209 -0.455486 0.093349
v -1.212209 -0.376342 0.093349
v -1.212209 -0.455486 -0.093349
v -1.212209 -0.376342 -0.093349
vt 0.375000 0.000000
vt 0.625000 0.000000
vt 0.625000 0.250000
vt 0.375000 0.250000
vt 0.625000 0.500000
vt 0.375000 0.500000
vt 0.625000 0.750000
vt 0.375000 0.750000
vt 0.625000 1.000000
vt 0.375000 1.000000
vt 0.125000 0.500000
vt 0.125000 0.750000
vt 0.875000 0.500000
vt 0.875000 0.750000
vn -1.0000 0.0000 0.0000
vn -0.0000 0.0000 -1.0000
vn 1.0000 0.0000 0.0000
vn 0.0000 0.0000 1.0000
vn 0.2755 -0.9613 0.0000
vn 0.0000 1.0000 0.0000
usemtl None
s off
f 199/265/43 200/266/43 202/267/43 201/268/43
f 201/268/44 202/267/44 206/269/44 205/270/44
f 205/270/45 206/269/45 204/271/45 203/272/45
f 203/272/46 204/271/46 200/273/46 199/274/46
f 201/275/47 205/270/47 203/272/47 199/276/47
f 206/269/48 202/277/48 200/278/48 204/271/48
